<svg xmlns="http://www.w3.org/2000/svg" width="40.503" height="45.651" viewBox="0 0 40.503 45.651"><defs><style>.a{fill:#f45b25;}.b{fill:none;}.c{fill:#ff7136;}.d{fill:#414547;}.e{fill:#f9ddd2;}.f{fill:#fdf0ea;}.g{fill:#3993ce;}</style></defs><g transform="translate(-8.3 -3)"><path class="a" d="M34.8,3.9H9.3V44.646H42.421V11.525Z" transform="translate(-0.514 -0.463)"/><path class="b" d="M64.239,44.675h2.283V12.233L59.188,4.9H57.1l7.139,7.139Z" transform="translate(-25.1 -0.977)"/><path class="c" d="M10.2,44.675H40.116V12.039L32.977,4.9H10.2Z" transform="translate(-0.977 -0.977)"/><path class="d" d="M34.476,3H8.3V44.572H42.344v-33.7Zm6.945,40.7H9.223V3.923H34.088l7.333,7.333Z"/><g transform="translate(34.331 3.705)"><path class="e" d="M69.039,11.808H62.046a.155.155,0,0,1-.146-.146V4.621a.16.16,0,0,1,.291-.1l6.993,6.993C69.282,11.614,69.185,11.808,69.039,11.808Z" transform="translate(-61.9 -4.452)"/></g><path class="b" d="M68.822,12.222,62.8,6.2V7.414l4.808,4.808Z" transform="translate(-28.032 -1.646)"/><path class="f" d="M67.608,13.508,62.8,8.7v4.808Z" transform="translate(-28.032 -2.932)"/><path class="d" d="M68.962,10.688,61.968,3.694a.6.6,0,0,0-.68-.146.631.631,0,0,0-.389.583v6.993a.178.178,0,0,0,.049.146.627.627,0,0,0,.583.437h6.993a.631.631,0,0,0,.583-.389A.53.53,0,0,0,68.962,10.688Zm-2.331.146H61.823V4.811l6.022,6.022H66.631Z" transform="translate(-27.055 -0.257)"/><g transform="translate(26.269 26.117)"><circle class="e" cx="11.024" cy="11.024" r="11.024"/></g><path class="b" d="M79.03,62.293A10.979,10.979,0,0,1,71.6,72.686,10.534,10.534,0,0,0,71.649,51.9,10.983,10.983,0,0,1,79.03,62.293Z" transform="translate(-32.558 -25.152)"/><path class="f" d="M46.2,62.138A10.612,10.612,0,0,0,56.787,72.725a10.77,10.77,0,0,0,1.8-.146,11.017,11.017,0,0,0,0-20.834,10.77,10.77,0,0,0-1.8-.146A10.539,10.539,0,0,0,46.2,62.138Z" transform="translate(-19.494 -24.997)"/><path class="d" d="M55.81,49.6a11.843,11.843,0,0,0-3.74.631,11.5,11.5,0,0,0,0,21.757,11.842,11.842,0,0,0,3.74.631,11.51,11.51,0,0,0,0-23.02Zm1.8,21.951a10.77,10.77,0,0,1-1.8.146,10.587,10.587,0,0,1,0-21.174,10.77,10.77,0,0,1,1.8.146,10.6,10.6,0,0,1,0,20.883Z" transform="translate(-18.517 -23.969)"/><g transform="translate(32.582 32.916)"><path class="g" d="M63.011,64.6c1.554,1.506,3.108,3.108,4.711,4.711H64.9v3.837H61.068V69.359H58.3C59.854,67.708,61.457,66.154,63.011,64.6Z" transform="translate(-58.3 -64.6)"/></g><g transform="translate(13.836 16.55)"><path class="f" d="M19.7,35.759V31h1.02v3.934h1.943v.826Z" transform="translate(-19.7 -30.951)"/><path class="f" d="M32.265,33.328a2.5,2.5,0,0,1-.583,1.8,2.165,2.165,0,0,1-1.7.631,2.235,2.235,0,0,1-1.7-.631,2.581,2.581,0,0,1-.583-1.8,2.5,2.5,0,0,1,.583-1.8,2.165,2.165,0,0,1,1.7-.631,1.994,1.994,0,0,1,1.651.631A2.32,2.32,0,0,1,32.265,33.328Zm-3.448,0a2.136,2.136,0,0,0,.291,1.214.984.984,0,0,0,.923.389c.826,0,1.214-.534,1.214-1.6s-.389-1.6-1.214-1.6a1.243,1.243,0,0,0-.923.389A2.136,2.136,0,0,0,28.817,33.328Z" transform="translate(-23.815 -30.9)"/><path class="f" d="M41.54,33.037h1.894v2.477a5.647,5.647,0,0,1-.874.194,4.712,4.712,0,0,1-.826.049,2.058,2.058,0,0,1-1.651-.631,2.581,2.581,0,0,1-.583-1.8,2.416,2.416,0,0,1,.68-1.8,2.509,2.509,0,0,1,1.845-.631,3.484,3.484,0,0,1,1.408.291l-.34.826a2.146,2.146,0,0,0-1.068-.243,1.428,1.428,0,0,0-1.068.437,1.772,1.772,0,0,0-.389,1.166,1.6,1.6,0,0,0,.34,1.166,1.034,1.034,0,0,0,.923.389,2.769,2.769,0,0,0,.631-.049v-.971H41.54Z" transform="translate(-29.884 -30.9)"/><path class="f" d="M54.765,33.328a2.5,2.5,0,0,1-.583,1.8,2.165,2.165,0,0,1-1.7.631,2.235,2.235,0,0,1-1.7-.631,2.581,2.581,0,0,1-.583-1.8,2.5,2.5,0,0,1,.583-1.8,2.165,2.165,0,0,1,1.7-.631,1.994,1.994,0,0,1,1.651.631A2.32,2.32,0,0,1,54.765,33.328Zm-3.448,0a2.136,2.136,0,0,0,.291,1.214.984.984,0,0,0,.923.389c.826,0,1.214-.534,1.214-1.6s-.389-1.6-1.214-1.6a1.243,1.243,0,0,0-.923.389A2.136,2.136,0,0,0,51.317,33.328Z" transform="translate(-35.388 -30.9)"/></g></g></svg>